<svg width="153" height="156" viewBox="0 0 153 156" xmlns="http://www.w3.org/2000/svg" xmlns:xlink="http://www.w3.org/1999/xlink"><title>Page 1</title><defs><path id="a" d="M.024 14.199H9.69V.082H.024z"/><path id="c" d="M.113 13.825h11.283V.054H.113v13.771z"/><path id="e" d="M4.993 4.552V.02H.03v4.532h4.963z"/></defs><g fill="none" fill-rule="evenodd" opacity=".57"><path fill="#FFF" d="M37.234 90.91h4.23V40.244h-4.23zm16.085-46.623v42.58h-5.823v4.042h10.656V40.245H47.496v4.042zm30.421-4.042v50.664h10.655v-4.042h-5.822v-42.58h5.822v-4.042zm16.579 50.665h4.23V40.244h-4.23zM63.416 67.986h14.94v-4.873h-14.94z"/><path fill="#FFF" d="M70.886 0l-3.348 2.75-47.99 39.41 2.67 3.306L70.887 5.499l48.668 39.967 2.672-3.305L74.235 2.75zM32.442 115.42l-8.38 20.047h2.84l2.387-5.756h8.891l2.415 5.756h2.812l-8.38-20.047h-2.585zm4.63 11.656h-6.676l3.353-7.962 3.323 7.962zm13.806-1.633c0 1.452.275 2.817.824 4.096a10.703 10.703 0 0 0 2.244 3.35c.947.954 2.055 1.71 3.324 2.263 1.269.553 2.623.83 4.062.83.91 0 1.79-.114 2.642-.344a10.66 10.66 0 0 0 2.414-.973 10.18 10.18 0 0 0 3.694-3.494l-2.188-1.432a7.914 7.914 0 0 1-2.784 2.62 7.497 7.497 0 0 1-3.778.988 7.463 7.463 0 0 1-3.025-.615 7.926 7.926 0 0 1-2.472-1.69 7.898 7.898 0 0 1-1.676-2.52 7.829 7.829 0 0 1-.61-3.079c0-1.088.203-2.114.61-3.078a7.906 7.906 0 0 1 1.676-2.52 7.948 7.948 0 0 1 2.472-1.69 7.463 7.463 0 0 1 3.025-.615 7.5 7.5 0 0 1 3.778.987 7.92 7.92 0 0 1 2.784 2.62l2.188-1.46a10.385 10.385 0 0 0-3.694-3.48c-1.533-.867-3.22-1.302-5.056-1.302-1.44 0-2.793.277-4.062.83a10.606 10.606 0 0 0-3.324 2.263 10.709 10.709 0 0 0-2.244 3.35 10.272 10.272 0 0 0-.824 4.095m29.232-9.994v20.017h2.67v-4.009l2.898-3.837 5.909 7.846h3.295l-7.556-10.023 7.5-9.994h-3.268l-8.777 11.655V115.45zm23.607-.029v20.047h13.266v-2.635h-10.568v-6.071h9.801v-2.635h-9.8v-6.07h10.567v-2.636zm23.294 0v20.047h2.67v-7.39h3.381l5.37 7.39h3.323l-5.398-7.446a6.4 6.4 0 0 0 3.85-2.09 6.53 6.53 0 0 0 1.15-1.905 6.116 6.116 0 0 0 .426-2.277 6.15 6.15 0 0 0-.497-2.448 6.434 6.434 0 0 0-1.349-2.02 6.374 6.374 0 0 0-2.003-1.36 6.019 6.019 0 0 0-2.429-.5h-8.494zm9.915 9.737c-.436.191-.91.286-1.421.286h-5.823v-7.388h5.823a3.5 3.5 0 0 1 2.557 1.074c.322.334.573.725.753 1.175.18.448.27.93.27 1.445 0 .516-.09.998-.27 1.446-.18.45-.43.84-.753 1.174-.322.334-.7.597-1.136.788zm4.829 16.728h-8.885v13.426h8.885v-1.764h-7.077v-4.067h6.564v-1.764h-6.564v-4.067h7.077z"/><g transform="translate(101.374 141.458)"><mask id="b" fill="#fff"><use xlink:href="#a"/></mask><path d="M8.672 2.201A3.924 3.924 0 0 0 7.71 1.09 4.561 4.561 0 0 0 6.34.35 5.12 5.12 0 0 0 4.666.082c-.672 0-1.287.096-1.845.287a4.412 4.412 0 0 0-1.428.787 3.431 3.431 0 0 0-.912 1.198A3.59 3.59 0 0 0 .157 3.88c0 .653.137 1.19.41 1.611.271.422.62.771 1.045 1.046.426.275.904.496 1.437.662l1.58.44c2.18.55 3.272 1.414 3.272 2.59 0 .307-.08.591-.238.854a2.424 2.424 0 0 1-.656.7c-.28.204-.606.364-.98.48-.375.115-.77.172-1.19.172-.824 0-1.525-.201-2.102-.604-.577-.403-.955-.899-1.132-1.487l-1.579.326c.063.5.234.962.513 1.391.28.428.631.802 1.056 1.122.426.32.917.57 1.475.748a5.73 5.73 0 0 0 1.77.269 5.57 5.57 0 0 0 1.892-.317 5.163 5.163 0 0 0 1.542-.853 4.085 4.085 0 0 0 1.037-1.257c.254-.479.38-.994.38-1.544 0-.358-.06-.735-.18-1.132-.12-.396-.352-.79-.694-1.18-.343-.39-.816-.756-1.419-1.102-.602-.345-1.385-.64-2.35-.882a17.105 17.105 0 0 1-1.569-.47c-.4-.147-.71-.298-.932-.45-.222-.154-.374-.323-.457-.51a1.514 1.514 0 0 1-.123-.623c0-.588.237-1.074.713-1.457.476-.384 1.138-.576 1.988-.576.8 0 1.446.199 1.941.595.495.396.812.902.951 1.515l1.58-.345a3.715 3.715 0 0 0-.466-1.41" fill="#FFF" mask="url(#b)"/></g><g transform="translate(68.386 141.832)"><mask id="d" fill="#fff"><use xlink:href="#c"/></mask><path d="M11.396 7.649V.054H9.607v7.595l-.038.69c-.025.282-.08.585-.161.911a4.97 4.97 0 0 1-.371.988 3.17 3.17 0 0 1-.676.902c-.285.268-.64.489-1.066.662-.424.172-.935.258-1.53.258-2.563 0-3.844-1.47-3.844-4.411V.054H.113v7.595c0 1.982.489 3.507 1.465 4.574.977 1.068 2.372 1.602 4.186 1.602.85 0 1.624-.144 2.322-.432a4.89 4.89 0 0 0 1.778-1.237c.489-.537.866-1.186 1.132-1.946.267-.761.4-1.615.4-2.561" fill="#FFF" mask="url(#d)"/></g><path d="M46.332 148.598a6.88 6.88 0 0 0-.552-2.743 7.173 7.173 0 0 0-1.503-2.244 7.112 7.112 0 0 0-2.226-1.515 6.727 6.727 0 0 0-2.72-.556c-.978 0-1.89.185-2.741.556-.85.37-1.589.876-2.216 1.515a7.257 7.257 0 0 0-1.494 2.244 6.88 6.88 0 0 0-.552 2.743c0 .972.184 1.886.552 2.743a7.236 7.236 0 0 0 1.494 2.244 6.981 6.981 0 0 0 2.216 1.515 6.79 6.79 0 0 0 2.74.557 6.72 6.72 0 0 0 2.72-.557 7.097 7.097 0 0 0 2.227-1.515 7.152 7.152 0 0 0 1.503-2.244 6.878 6.878 0 0 0 .552-2.743m-2.217-2.052c.273.64.41 1.324.41 2.052a5.366 5.366 0 0 1-1.522 3.75 5.2 5.2 0 0 1-1.647 1.132 5.003 5.003 0 0 1-2.026.412 5.073 5.073 0 0 1-2.036-.412 5.155 5.155 0 0 1-1.655-1.132 5.368 5.368 0 0 1-1.114-5.802 5.41 5.41 0 0 1 1.114-1.679 5.265 5.265 0 0 1 1.655-1.14 4.963 4.963 0 0 1 2.036-.423c.723 0 1.398.141 2.026.423a5.333 5.333 0 0 1 2.759 2.819M0 135.466h2.67v-8.705h9.83v8.705h2.67V115.42H12.5v8.706H2.67v-8.706H0zm10.16 19.845v-13.425H8.372v5.83H1.789v-5.83H0v13.425h1.789v-5.83h6.583v5.83zm135.1-12.599h-1.208v-.86h3.456v.86h-1.228v3.672h-1.02z" fill="#FFF"/><g transform="translate(147.892 141.832)"><mask id="f" fill="#fff"><use xlink:href="#e"/></mask><path d="M3.933 2.817a51.47 51.47 0 0 1-.04-1.863h-.02c-.14.579-.327 1.224-.5 1.756l-.548 1.768h-.794l-.48-1.755A20.88 20.88 0 0 1 1.144.954h-.013c-.027.612-.047 1.312-.08 1.877L.97 4.552H.03L.317.02H1.67l.44 1.513c.14.524.28 1.09.38 1.62h.02c.127-.524.28-1.123.428-1.627L3.419.02h1.327l.247 4.532H4l-.066-1.735z" fill="#FFF" mask="url(#f)"/></g></g></svg>