<svg width="126" height="128" viewBox="0 0 126 128" xmlns="http://www.w3.org/2000/svg" xmlns:xlink="http://www.w3.org/1999/xlink"><title>Page 1</title><defs><path id="a" d="M.02 11.61h7.92V.067H.02z"/><path id="c" d="M.093 11.304h9.246V.044H.093v11.26z"/><path id="e" d="M4.092 3.722V.016H.025v3.706h4.067z"/></defs><g fill="none" fill-rule="evenodd"><path fill="#C8C8C8" d="M30.513 74.334h3.466V32.907h-3.466zm13.181-38.122V71.03h-4.771v3.305h8.732V32.907h-8.732v3.305zm24.93-3.305v41.427h8.732v-3.305h-4.771V36.212h4.77v-3.305zM82.21 74.334h3.466V32.907H82.21zM51.969 55.59h12.243v-3.984H51.97z"/><path fill="#C8C8C8" d="M58.09 0l-2.743 2.248-39.328 32.225 2.19 2.703L58.09 4.496l39.882 32.68 2.19-2.702L60.835 2.248zM26.586 94.376l-6.868 16.391h2.328l1.956-4.706h7.286l1.979 4.706h2.305l-6.868-16.391h-2.118zm3.794 9.53h-5.47l2.747-6.51 2.723 6.51zm11.314-1.334c0 1.186.225 2.302.675 3.348a8.75 8.75 0 0 0 1.84 2.74 8.691 8.691 0 0 0 2.723 1.85 8.249 8.249 0 0 0 3.329.679c.745 0 1.467-.094 2.165-.281a8.747 8.747 0 0 0 1.979-.796 8.34 8.34 0 0 0 3.026-2.857l-1.793-1.171a6.48 6.48 0 0 1-2.28 2.143 6.154 6.154 0 0 1-3.097.808 6.128 6.128 0 0 1-2.48-.504 6.457 6.457 0 0 1-3.399-3.442 6.389 6.389 0 0 1-.5-2.517 6.464 6.464 0 0 1 3.9-5.96 6.127 6.127 0 0 1 2.479-.503c1.118 0 2.15.27 3.096.808a6.485 6.485 0 0 1 2.281 2.142l1.793-1.194a8.502 8.502 0 0 0-3.026-2.845c-1.257-.71-2.639-1.065-4.144-1.065a8.24 8.24 0 0 0-3.329.679 8.692 8.692 0 0 0-2.724 1.85 8.755 8.755 0 0 0-1.84 2.74 8.383 8.383 0 0 0-.674 3.348M65.65 94.4v16.367h2.188v-3.278l2.374-3.138 4.842 6.416h2.7l-6.192-8.195 6.146-8.172h-2.677l-7.193 9.53V94.4zm19.345-.024v16.391h10.871v-2.154h-8.66v-4.964h8.032v-2.154h-8.032V96.53h8.66v-2.155zm19.089 0v16.391h2.189v-6.041h2.77l4.4 6.041h2.724l-4.424-6.088a5.252 5.252 0 0 0 3.155-1.71c.395-.452.71-.97.943-1.556a4.991 4.991 0 0 0 .349-1.862 5.03 5.03 0 0 0-.407-2.002 5.26 5.26 0 0 0-1.106-1.65 5.224 5.224 0 0 0-1.642-1.113 4.942 4.942 0 0 0-1.99-.41h-6.96zm8.125 7.962a2.876 2.876 0 0 1-1.164.234h-4.772V96.53h4.772a2.873 2.873 0 0 1 2.095.878c.264.273.47.593.617.96.147.366.221.76.221 1.182 0 .421-.074.816-.22 1.182a2.892 2.892 0 0 1-1.548 1.604zm3.958 13.678h-7.281v10.978h7.28v-1.443h-5.8v-3.325h5.38v-1.443h-5.38v-3.325h5.8z"/><g transform="translate(83.075 115.666)"><mask id="b" fill="#fff"><use xlink:href="#a"/></mask><path d="M7.106 1.8A3.21 3.21 0 0 0 6.32.89 3.74 3.74 0 0 0 5.196.286 4.204 4.204 0 0 0 3.824.067a4.63 4.63 0 0 0-1.512.235 3.618 3.618 0 0 0-1.17.643 2.806 2.806 0 0 0-.748.98 2.93 2.93 0 0 0-.265 1.247c0 .534.112.973.335 1.317.223.345.51.63.857.856.349.224.74.405 1.178.54l1.294.361c1.788.45 2.682 1.155 2.682 2.117 0 .251-.066.484-.195.698-.13.215-.31.406-.538.572a2.686 2.686 0 0 1-.803.393 3.31 3.31 0 0 1-.974.14c-.676 0-1.25-.164-1.723-.493-.473-.33-.783-.735-.928-1.216L.02 8.724c.052.408.192.787.42 1.137.23.35.518.656.866.917.348.262.75.466 1.208.612.457.147.941.22 1.45.22a4.59 4.59 0 0 0 1.551-.259 4.234 4.234 0 0 0 1.264-.698c.358-.293.641-.635.85-1.027a2.65 2.65 0 0 0 .311-1.263c0-.292-.05-.601-.148-.925-.098-.324-.288-.646-.569-.965-.28-.319-.668-.619-1.162-.901-.493-.282-1.135-.523-1.925-.721-.53-.137-.959-.265-1.286-.385a3.525 3.525 0 0 1-.765-.368 1.024 1.024 0 0 1-.374-.416 1.236 1.236 0 0 1-.101-.51c0-.48.195-.878.584-1.192.39-.313.934-.47 1.63-.47.655 0 1.185.162 1.59.486.406.324.666.737.78 1.239l1.294-.283A3.033 3.033 0 0 0 7.106 1.8" fill="#C8C8C8" mask="url(#b)"/></g><g transform="translate(56.042 115.972)"><mask id="d" fill="#fff"><use xlink:href="#c"/></mask><path d="M9.339 6.254V.044H7.873v6.21l-.031.565c-.02.23-.065.478-.133.745a4.059 4.059 0 0 1-.303.807 2.61 2.61 0 0 1-.554.738c-.234.219-.525.4-.873.54-.349.142-.767.212-1.255.212-2.1 0-3.15-1.202-3.15-3.607V.044H.093v6.21c0 1.621.4 2.868 1.2 3.74.8.874 1.944 1.31 3.43 1.31.697 0 1.331-.117 1.903-.353A4 4 0 0 0 8.084 9.94c.4-.44.71-.97.927-1.592.219-.622.328-1.32.328-2.094" fill="#C8C8C8" mask="url(#d)"/></g><path d="M37.968 121.505c0-.795-.15-1.542-.452-2.243a5.864 5.864 0 0 0-1.232-1.835 5.829 5.829 0 0 0-1.824-1.239 5.523 5.523 0 0 0-2.23-.454c-.8 0-1.548.15-2.245.454a5.734 5.734 0 0 0-1.816 1.239 5.933 5.933 0 0 0-1.224 1.835 5.615 5.615 0 0 0-.452 2.243 5.6 5.6 0 0 0 .452 2.242c.301.701.71 1.313 1.224 1.835.514.523 1.12.936 1.816 1.24a5.565 5.565 0 0 0 2.246.454c.79 0 1.533-.152 2.229-.455a5.816 5.816 0 0 0 1.824-1.239c.52-.522.93-1.134 1.232-1.835.301-.7.452-1.448.452-2.242m-1.816-1.679a4.24 4.24 0 0 1 .335 1.679 4.387 4.387 0 0 1-1.247 3.066c-.385.392-.835.7-1.349.925a4.108 4.108 0 0 1-1.66.337 4.225 4.225 0 0 1-3.025-1.263 4.388 4.388 0 0 1-1.248-3.065c0-.596.112-1.155.335-1.679a4.33 4.33 0 0 1 2.269-2.305 4.075 4.075 0 0 1 1.669-.345c.592 0 1.145.115 1.66.345a4.37 4.37 0 0 1 2.26 2.305M0 110.767h2.188v-7.118h8.055v7.118h2.188V94.376h-2.188v7.119H2.188v-7.12H0zm8.326 16.227v-10.978H6.861v4.767H1.466v-4.767H0v10.978h1.466v-4.768H6.86v4.768zm110.712-10.302h-.99v-.704h2.833v.704h-1.006v3.002h-.837z" fill="#C8C8C8"/><g transform="translate(121.195 115.972)"><mask id="f" fill="#fff"><use xlink:href="#e"/></mask><path d="M3.223 2.303A41.917 41.917 0 0 1 3.19.78h-.016a20.428 20.428 0 0 1-.41 1.436l-.449 1.446h-.65L1.27 2.227A17.42 17.42 0 0 1 .936.78h-.01C.905 1.28.888 1.853.86 2.314L.795 3.722h-.77L.26.016h1.11l.36 1.237c.115.43.23.891.312 1.325h.016c.104-.428.23-.918.35-1.33L2.802.016H3.89l.202 3.706h-.815l-.054-1.419z" fill="#C8C8C8" mask="url(#f)"/></g></g></svg>